# xmcd
# 
# Track frame offsets:
#     150
#     28093
#     54500
#     81691
#     105930
#     136510
#     149275
#     168264
# 
# Disc length: 2452
# 
# Revision: 2
# Processed by: cddbd v1.5.2PL0 Copyright (c) Steve Scherf et al.
# Submitted via: fre:ac v1.0.31
# 
DISCID=62099208
DTITLE=Bill Evans - VERY BEST OF JAZZ GIANTS 10
DYEAR=2015
DGENRE=Jazz
TTITLE0=Israel
TTITLE1=Nardis
TTITLE2=Summertime
TTITLE3=My Funny Valentine
TTITLE4=My Man's Gone Now
TTITLE5=How My Heart Sings
TTITLE6=Stella By Starlight
TTITLE7=I Will Say Goodbye
EXTD=
EXTT0=
EXTT1=
EXTT2=
EXTT3=
EXTT4=
EXTT5=
EXTT6=
EXTT7=
PLAYORDER=
